<svg xmlns="http://www.w3.org/2000/svg" width="1600" height="1000">
<defs>
  <style>
    .box{fill:#f5f7fa;stroke:#334155;stroke-width:2}
    .group{fill:#eef2ff;stroke:#334155;stroke-width:2}
    .title{font-family:Arial, Helvetica, sans-serif;font-size:18px;fill:#0f172a}
    .arrow{stroke:#334155;stroke-width:2;fill:none}
    .dashed{stroke:#334155;stroke-width:2;fill:none;stroke-dasharray:6,6}
  </style>
  <marker id="arrow" markerWidth="10" markerHeight="10" refX="8" refY="3" orient="auto">
    <path d="M0,0 L8,3 L0,6 Z" fill="#334155"/>
  </marker>
</defs>

<rect x="50" y="80" width="150" height="60" class="box"/>
<text x="125" y="117" text-anchor="middle" class="title">输入/查询</text>

<rect x="220" y="80" width="260" height="60" class="box"/>
<text x="350" y="117" text-anchor="middle" class="title">ConfigurableRouter</text>

<line x1="200" y1="110" x2="220" y2="110" class="arrow" marker-end="url(#arrow)"/>

<rect x="50" y="220" width="900" height="260" class="group"/>
<text x="500" y="240" text-anchor="middle" class="title">ReAct 子图</text>

<rect x="70" y="260" width="150" height="50" class="box"/>
<text x="145" y="290" text-anchor="middle" class="title">检索节点</text>

<rect x="230" y="260" width="180" height="50" class="box"/>
<text x="320" y="290" text-anchor="middle" class="title">EvidencePreprocessor</text>

<rect x="430" y="260" width="160" height="50" class="box"/>
<text x="510" y="290" text-anchor="middle" class="title">ReasoningNode</text>

<rect x="610" y="260" width="160" height="50" class="box"/>
<text x="690" y="290" text-anchor="middle" class="title">AnswerExtractorNode</text>

<rect x="790" y="260" width="160" height="50" class="box"/>
<text x="870" y="290" text-anchor="middle" class="title">AnswerValidatorNode</text>

<rect x="70" y="320" width="160" height="50" class="box"/>
<text x="150" y="350" text-anchor="middle" class="title">CitationNode</text>

<rect x="250" y="320" width="120" height="50" class="box"/>
<text x="310" y="350" text-anchor="middle" class="title">输出</text>

<line x1="350" y1="110" x2="120" y2="260" class="arrow" marker-end="url(#arrow)"/>
<line x1="220" y1="285" x2="230" y2="285" class="arrow" marker-end="url(#arrow)"/>
<line x1="410" y1="285" x2="430" y2="285" class="arrow" marker-end="url(#arrow)"/>
<line x1="590" y1="285" x2="610" y2="285" class="arrow" marker-end="url(#arrow)"/>
<line x1="770" y1="285" x2="790" y2="285" class="arrow" marker-end="url(#arrow)"/>
<line x1="850" y1="285" x2="150" y2="320" class="arrow" marker-end="url(#arrow)"/>
<line x1="230" y1="345" x2="250" y2="345" class="arrow" marker-end="url(#arrow)"/>

<rect x="50" y="520" width="900" height="320" class="group"/>
<text x="500" y="540" text-anchor="middle" class="title">MAS 子图</text>

<rect x="70" y="560" width="180" height="50" class="box"/>
<text x="160" y="590" text-anchor="middle" class="title">Chief 任务分解</text>

<rect x="270" y="560" width="200" height="50" class="box"/>
<text x="370" y="590" text-anchor="middle" class="title">ExecutionCoordinator</text>

<rect x="490" y="560" width="220" height="50" class="box"/>
<text x="600" y="590" text-anchor="middle" class="title">ExpertAgent 节点池</text>

<rect x="70" y="640" width="150" height="50" class="box"/>
<text x="145" y="670" text-anchor="middle" class="title">检索节点</text>

<rect x="230" y="640" width="160" height="50" class="box"/>
<text x="310" y="670" text-anchor="middle" class="title">ReasoningNode</text>

<rect x="400" y="640" width="160" height="50" class="box"/>
<text x="480" y="670" text-anchor="middle" class="title">AnswerExtractorNode</text>

<rect x="570" y="640" width="160" height="50" class="box"/>
<text x="650" y="670" text-anchor="middle" class="title">AnswerValidatorNode</text>

<rect x="740" y="640" width="150" height="50" class="box"/>
<text x="815" y="670" text-anchor="middle" class="title">CitationNode</text>

<rect x="910" y="640" width="120" height="50" class="box"/>
<text x="970" y="670" text-anchor="middle" class="title">输出</text>

<line x1="350" y1="110" x2="160" y2="560" class="arrow" marker-end="url(#arrow)"/>
<line x1="250" y1="585" x2="270" y2="585" class="arrow" marker-end="url(#arrow)"/>
<line x1="470" y1="585" x2="490" y2="585" class="arrow" marker-end="url(#arrow)"/>
<line x1="220" y1="665" x2="230" y2="665" class="arrow" marker-end="url(#arrow)"/>
<line x1="390" y1="665" x2="400" y2="665" class="arrow" marker-end="url(#arrow)"/>
<line x1="560" y1="665" x2="570" y2="665" class="arrow" marker-end="url(#arrow)"/>
<line x1="730" y1="665" x2="740" y2="665" class="arrow" marker-end="url(#arrow)"/>
<line x1="890" y1="665" x2="910" y2="665" class="arrow" marker-end="url(#arrow)"/>

<rect x="1000" y="220" width="560" height="320" class="group"/>
<text x="1280" y="240" text-anchor="middle" class="title">SystemServices</text>

<rect x="1020" y="260" width="160" height="50" class="box"/>
<text x="1100" y="290" text-anchor="middle" class="title">ErrorHandler/Recovery</text>

<rect x="1200" y="260" width="160" height="50" class="box"/>
<text x="1280" y="290" text-anchor="middle" class="title">PerformanceMonitor</text>

<rect x="1380" y="260" width="160" height="50" class="box"/>
<text x="1460" y="290" text-anchor="middle" class="title">StateOptimizer</text>

<rect x="1020" y="320" width="160" height="50" class="box"/>
<text x="1100" y="350" text-anchor="middle" class="title">LearningNodes</text>

<line x1="1180" y1="285" x2="510" y2="285" class="arrow" marker-end="url(#arrow)"/>
<line x1="1260" y1="285" x2="510" y2="285" class="arrow" marker-end="url(#arrow)"/>
<line x1="1440" y1="285" x2="510" y2="285" class="arrow" marker-end="url(#arrow)"/>
<line x1="1180" y1="345" x2="510" y2="285" class="arrow" marker-end="url(#arrow)"/>

<line x1="1180" y1="285" x2="310" y2="665" class="arrow" marker-end="url(#arrow)"/>
<line x1="1260" y1="285" x2="310" y2="665" class="arrow" marker-end="url(#arrow)"/>
<line x1="1440" y1="285" x2="310" y2="665" class="arrow" marker-end="url(#arrow)"/>
<line x1="1180" y1="345" x2="310" y2="665" class="arrow" marker-end="url(#arrow)"/>

<rect x="1000" y="560" width="160" height="50" class="box"/>
<text x="1080" y="590" text-anchor="middle" class="title">CacheManager</text>

<rect x="1200" y="560" width="180" height="50" class="box"/>
<text x="1290" y="590" text-anchor="middle" class="title">ContextManager</text>

<line x1="1160" y1="585" x2="145" y2="640" class="dashed" marker-end="url(#arrow)"/>
<line x1="1160" y1="585" x2="145" y2="260" class="dashed" marker-end="url(#arrow)"/>
<line x1="1290" y1="585" x2="510" y2="285" class="arrow" marker-end="url(#arrow)"/>
<line x1="1290" y1="585" x2="310" y2="665" class="arrow" marker-end="url(#arrow)"/>
</svg>
