<svg xmlns="http://www.w3.org/2000/svg" width="1600" height="900">
<defs>
  <style>
    .box{fill:#f5f7fa;stroke:#334155;stroke-width:2}
    .group{fill:#eef2ff;stroke:#334155;stroke-width:2}
    .title{font-family:Arial, Helvetica, sans-serif;font-size:18px;fill:#0f172a}
    .arrow{stroke:#334155;stroke-width:2;fill:none}
  </style>
  <marker id="arrow" markerWidth="10" markerHeight="10" refX="8" refY="3" orient="auto">
    <path d="M0,0 L8,3 L0,6 Z" fill="#334155"/>
  </marker>
</defs>

<rect x="50" y="50" width="220" height="60" class="box"/>
<text x="160" y="87" text-anchor="middle" class="title">策略选择器</text>

<rect x="300" y="50" width="220" height="60" class="box"/>
<text x="410" y="87" text-anchor="middle" class="title">ChiefAgent</text>

<rect x="550" y="40" width="220" height="60" class="box"/>
<text x="660" y="77" text-anchor="middle" class="title">任务分解</text>

<rect x="550" y="120" width="220" height="60" class="box"/>
<text x="660" y="157" text-anchor="middle" class="title">依赖管理</text>

<rect x="850" y="50" width="220" height="60" class="box"/>
<text x="960" y="87" text-anchor="middle" class="title">ExecutionCoordinator</text>

<rect x="1100" y="30" width="420" height="260" class="group"/>
<text x="1310" y="50" text-anchor="middle" class="title">ExpertAgent 池</text>

<rect x="1120" y="60" width="180" height="50" class="box"/>
<text x="1210" y="90" text-anchor="middle" class="title">KnowledgeRetrievalAgent</text>

<rect x="1320" y="60" width="180" height="50" class="box"/>
<text x="1410" y="90" text-anchor="middle" class="title">ReasoningAgent</text>

<rect x="1120" y="120" width="180" height="50" class="box"/>
<text x="1210" y="150" text-anchor="middle" class="title">AnswerGenerationAgent</text>

<rect x="1320" y="120" width="180" height="50" class="box"/>
<text x="1410" y="150" text-anchor="middle" class="title">CitationAgent</text>

<rect x="1120" y="180" width="180" height="50" class="box"/>
<text x="1210" y="210" text-anchor="middle" class="title">MemoryAgent</text>

<rect x="1320" y="180" width="180" height="50" class="box"/>
<text x="1410" y="210" text-anchor="middle" class="title">MultimodalAgent</text>

<rect x="1120" y="240" width="180" height="50" class="box"/>
<text x="1210" y="270" text-anchor="middle" class="title">PromptEngineeringAgent</text>

<rect x="1320" y="240" width="180" height="50" class="box"/>
<text x="1410" y="270" text-anchor="middle" class="title">ContextEngineeringAgent</text>

<rect x="1120" y="330" width="180" height="50" class="box"/>
<text x="1210" y="360" text-anchor="middle" class="title">KnowledgeRetrievalTool</text>

<rect x="1320" y="330" width="180" height="50" class="box"/>
<text x="1410" y="360" text-anchor="middle" class="title">ReasoningTool</text>

<rect x="1120" y="390" width="180" height="50" class="box"/>
<text x="1210" y="420" text-anchor="middle" class="title">AnswerGenerationTool</text>

<rect x="1320" y="390" width="180" height="50" class="box"/>
<text x="1410" y="420" text-anchor="middle" class="title">CitationTool</text>

<rect x="1520" y="330" width="60" height="50" class="box"/>
<text x="1550" y="360" text-anchor="middle" class="title">KMS</text>

<rect x="850" y="330" width="220" height="50" class="box"/>
<text x="960" y="360" text-anchor="middle" class="title">监控/质量保障</text>

<rect x="850" y="410" width="220" height="50" class="box"/>
<text x="960" y="440" text-anchor="middle" class="title">AB Testing / Canary</text>

<line x1="270" y1="80" x2="300" y2="80" class="arrow" marker-end="url(#arrow)"/>
<line x1="520" y1="80" x2="550" y2="80" class="arrow" marker-end="url(#arrow)"/>
<line x1="520" y1="80" x2="550" y2="150" class="arrow" marker-end="url(#arrow)"/>
<line x1="770" y1="80" x2="850" y2="80" class="arrow" marker-end="url(#arrow)"/>
<line x1="1070" y1="80" x2="1100" y2="80" class="arrow" marker-end="url(#arrow)"/>

<line x1="1300" y1="110" x2="1210" y2="330" class="arrow" marker-end="url(#arrow)"/>
<line x1="1410" y1="110" x2="1410" y2="330" class="arrow" marker-end="url(#arrow)"/>
<line x1="1210" y1="170" x2="1210" y2="390" class="arrow" marker-end="url(#arrow)"/>
<line x1="1410" y1="170" x2="1410" y2="390" class="arrow" marker-end="url(#arrow)"/>

<line x1="1300" y1="355" x2="1520" y2="355" class="arrow" marker-end="url(#arrow)"/>
<line x1="960" y1="330" x2="960" y2="410" class="arrow" marker-end="url(#arrow)"/>
</svg>
