<svg xmlns="http://www.w3.org/2000/svg" width="1800" height="1000">
<defs>
  <style>
    .box{fill:#f1f5f9;stroke:#334155;stroke-width:2}
    .group{fill:#eef2ff;stroke:#334155;stroke-width:2}
    .title{font-family:Arial, Helvetica, sans-serif;font-size:18px;fill:#0f172a}
    .label{font-family:Arial, Helvetica, sans-serif;font-size:16px;fill:#334155}
    .arrow{stroke:#334155;stroke-width:2;fill:none}
    .dashed{stroke:#334155;stroke-width:2;fill:none;stroke-dasharray:6,6}
    .arrow-red{stroke:#dc2626;stroke-width:2;fill:none}
    .arrow-blue{stroke:#2563eb;stroke-width:2;fill:none}
  </style>
  <marker id="arrow" markerWidth="10" markerHeight="10" refX="8" refY="3" orient="auto">
    <path d="M0,0 L8,3 L0,6 Z" fill="#334155"/>
  </marker>
  <marker id="arrow-red" markerWidth="10" markerHeight="10" refX="8" refY="3" orient="auto">
    <path d="M0,0 L8,3 L0,6 Z" fill="#dc2626"/>
  </marker>
  <marker id="arrow-blue" markerWidth="10" markerHeight="10" refX="8" refY="3" orient="auto">
    <path d="M0,0 L8,3 L0,6 Z" fill="#2563eb"/>
  </marker>
</defs>

<rect x="60" y="80" width="160" height="60" class="box"/>
<text x="140" y="115" text-anchor="middle" class="title">Query</text>

<rect x="250" y="80" width="240" height="60" class="box"/>
<text x="370" y="115" text-anchor="middle" class="title">Strategy Selector</text>

<rect x="520" y="80" width="260" height="60" class="box"/>
<text x="650" y="115" text-anchor="middle" class="title">Configurable Router</text>

<rect x="820" y="50" width="420" height="140" class="group"/>
<text x="1030" y="70" text-anchor="middle" class="title">Execution Path</text>
<rect x="840" y="90" width="180" height="60" class="box"/>
<text x="930" y="125" text-anchor="middle" class="label">ReAct</text>
<rect x="1040" y="90" width="180" height="60" class="box"/>
<text x="1130" y="125" text-anchor="middle" class="label">MAS</text>

<rect x="1280" y="80" width="240" height="60" class="box"/>
<text x="1400" y="115" text-anchor="middle" class="title">ToolRegistry</text>

<rect x="1550" y="80" width="180" height="60" class="box"/>
<text x="1640" y="115" text-anchor="middle" class="title">KMS API</text>

<line x1="220" y1="110" x2="250" y2="110" class="arrow" marker-end="url(#arrow)"/>
<line x1="490" y1="110" x2="520" y2="110" class="arrow" marker-end="url(#arrow)"/>
<line x1="780" y1="110" x2="820" y2="110" class="arrow" marker-end="url(#arrow)"/>
<line x1="1240" y1="110" x2="1280" y2="110" class="arrow" marker-end="url(#arrow)"/>
<line x1="1520" y1="110" x2="1550" y2="110" class="arrow" marker-end="url(#arrow)"/>

<rect x="140" y="220" width="300" height="60" class="box"/>
<text x="290" y="255" text-anchor="middle" class="title">Evidence</text>

<line x1="1640" y1="140" x2="290" y2="250" class="arrow" marker-end="url(#arrow)"/>

<rect x="480" y="220" width="240" height="60" class="box"/>
<text x="600" y="255" text-anchor="middle" class="title">EvidencePreprocessor</text>

<rect x="760" y="220" width="220" height="60" class="box"/>
<text x="870" y="255" text-anchor="middle" class="title">ReasoningEngine</text>

<rect x="1020" y="220" width="220" height="60" class="box"/>
<text x="1130" y="255" text-anchor="middle" class="title">AnswerExtractor</text>

<rect x="1280" y="220" width="220" height="60" class="box"/>
<text x="1390" y="255" text-anchor="middle" class="title">AnswerValidator</text>

<rect x="1540" y="220" width="160" height="60" class="box"/>
<text x="1620" y="255" text-anchor="middle" class="title">Citation</text>

<line x1="440" y1="250" x2="480" y2="250" class="arrow" marker-end="url(#arrow)"/>
<line x1="720" y1="250" x2="760" y2="250" class="arrow" marker-end="url(#arrow)"/>
<line x1="980" y1="250" x2="1020" y2="250" class="arrow" marker-end="url(#arrow)"/>
<line x1="1240" y1="250" x2="1280" y2="250" class="arrow" marker-end="url(#arrow)"/>
<line x1="1500" y1="250" x2="1540" y2="250" class="arrow" marker-end="url(#arrow)"/>

<rect x="760" y="340" width="220" height="60" class="box"/>
<text x="870" y="375" text-anchor="middle" class="title">Answer</text>
<line x1="1620" y1="280" x2="870" y2="370" class="arrow" marker-end="url(#arrow)"/>

<rect x="260" y="500" width="220" height="60" class="box"/>
<text x="370" y="535" text-anchor="middle" class="title">ContextManager</text>

<rect x="520" y="500" width="220" height="60" class="box"/>
<text x="630" y="535" text-anchor="middle" class="title">CacheManager</text>

<rect x="780" y="500" width="240" height="60" class="box"/>
<text x="900" y="535" text-anchor="middle" class="title">PerformanceMonitor</text>

<rect x="1060" y="500" width="240" height="60" class="box"/>
<text x="1180" y="535" text-anchor="middle" class="title">ErrorHandler/Recovery</text>

<line x1="370" y1="500" x2="870" y2="250" class="dashed" marker-end="url(#arrow)"/>
<line x1="630" y1="500" x2="290" y2="250" class="dashed" marker-end="url(#arrow)"/>
<line x1="900" y1="500" x2="1180" y2="250" class="dashed" marker-end="url(#arrow)"/>
<line x1="1180" y1="500" x2="1180" y2="250" class="dashed" marker-end="url(#arrow)"/>

<text x="1160" y="300" class="label">验证失败反馈</text>
<line x1="1390" y1="250" x2="870" y2="250" class="arrow-blue" marker-end="url(#arrow-blue)"/>
<text x="1190" y="280" class="label">重新推理</text>

<text x="900" y="580" class="label">性能反馈到策略</text>
<line x1="900" y1="590" x2="370" y2="110" class="arrow-red" marker-end="url(#arrow-red)"/>

<text x="630" y="580" class="label">缓存查询与证据</text>
<line x1="630" y1="590" x2="140" y2="115" class="arrow-blue" marker-end="url(#arrow-blue)"/>
<line x1="630" y1="590" x2="290" y2="250" class="arrow-blue" marker-end="url(#arrow-blue)"/>
</svg>
